<svg width="462" height="373" viewBox="0 0 462 373" fill="none" xmlns="http://www.w3.org/2000/svg">
<path d="M359.257 200.076C330.019 178.219 284.225 157.547 233.617 143.363C187.539 130.447 142.596 124.212 107.057 125.804L106.872 121.671C142.834 120.061 188.244 126.349 234.734 139.379C285.813 153.696 332.103 174.612 361.734 196.763L359.257 200.076Z" fill="#CCCCCC"/>
<path d="M356.221 216.913C356.247 236.278 352.187 255.432 344.307 273.121C343.649 274.602 342.964 276.07 342.251 277.523C328.544 305.597 305.729 328.198 277.528 341.641C249.326 355.083 217.402 358.573 186.962 351.541C156.523 344.509 129.364 327.371 109.915 302.921C90.467 278.472 79.8768 248.154 79.8723 216.913C79.8723 213.715 79.9812 210.542 80.1991 207.393C80.3025 205.792 80.4364 204.201 80.6005 202.619C84.2647 167.402 101.308 134.934 128.214 111.917C155.121 88.9 189.836 77.0898 225.196 78.9235C260.557 80.7572 293.864 96.095 318.245 121.772C342.626 147.448 356.22 181.505 356.221 216.913Z" fill="#76A39D"/>
<path opacity="0.1" d="M344.307 273.121C343.649 274.602 342.964 276.07 342.251 277.523C338.213 277.962 333.963 278.28 329.501 278.479C325.806 278.644 322.004 278.727 318.12 278.727C284.189 278.727 243.353 272.464 201.635 260.773C155.144 247.741 113.084 229.514 83.1984 209.445C82.1807 208.763 81.1809 208.079 80.1991 207.393C80.3025 205.792 80.4364 204.201 80.6005 202.619C82.1849 203.749 83.819 204.88 85.5027 206.012C115.036 225.84 156.675 243.873 202.753 256.789C244.106 268.381 284.557 274.59 318.099 274.59C321.934 274.59 325.673 274.509 329.315 274.346C334.618 274.106 339.616 273.698 344.307 273.121Z" fill="black"/>
<path d="M318.12 275.418C284.19 275.419 243.352 269.155 201.637 257.463C155.146 244.432 113.084 226.204 83.1978 206.136C52.6884 185.65 38.3819 165.463 42.9135 149.295C47.445 133.127 70.1593 123.316 106.872 121.671L107.057 125.804C89.9126 126.572 75.9407 129.121 65.5294 133.378C55.1434 137.625 48.8745 143.356 46.8969 150.412C44.9194 157.467 47.2965 165.621 53.9621 174.648C60.6441 183.696 71.2563 193.135 85.504 202.702C115.034 222.531 156.674 240.564 202.753 253.479C244.107 265.07 284.555 271.281 318.1 271.282C321.933 271.282 325.671 271.201 329.313 271.038C346.458 270.269 360.43 267.721 370.841 263.464C381.227 259.217 387.496 253.486 389.474 246.43C393.024 233.761 382.293 217.299 359.257 200.076L361.734 196.763C373.588 205.626 382.364 214.362 387.816 222.728C393.661 231.697 395.559 240.048 393.457 247.547C388.926 263.715 366.211 273.525 329.499 275.171C325.805 275.336 322.005 275.418 318.12 275.418Z" fill="#CCCCCC"/>
<path d="M221.702 53.8182C222.576 53.8182 223.285 53.1093 223.285 52.2348C223.285 51.3604 222.576 50.6515 221.702 50.6515C220.828 50.6515 220.119 51.3604 220.119 52.2348C220.119 53.1093 220.828 53.8182 221.702 53.8182Z" fill="#F2F2F2"/>
<path d="M11.6451 122.525C13.1494 122.525 14.369 121.305 14.369 119.801C14.369 118.296 13.1494 117.077 11.6451 117.077C10.1407 117.077 8.92114 118.296 8.92114 119.801C8.92114 121.305 10.1407 122.525 11.6451 122.525Z" fill="#CCCCCC"/>
<path d="M5.83939 231.794C8.81124 231.794 11.2204 229.384 11.2204 226.413C11.2204 223.441 8.81124 221.032 5.83939 221.032C2.86754 221.032 0.458374 223.441 0.458374 226.413C0.458374 229.384 2.86754 231.794 5.83939 231.794Z" fill="#CCCCCC"/>
<path d="M328.842 65.3212C330.822 65.3212 332.428 63.7156 332.428 61.7349C332.428 59.7542 330.822 58.1486 328.842 58.1486C326.861 58.1486 325.255 59.7542 325.255 61.7349C325.255 63.7156 326.861 65.3212 328.842 65.3212Z" fill="#CCCCCC"/>
<path d="M456.037 216.402C459.253 216.402 461.86 213.795 461.86 210.579C461.86 207.363 459.253 204.756 456.037 204.756C452.821 204.756 450.214 207.363 450.214 210.579C450.214 213.795 452.821 216.402 456.037 216.402Z" fill="#CCCCCC"/>
<path d="M410.506 120.078C411.885 120.078 413.004 118.96 413.004 117.58C413.004 116.2 411.885 115.082 410.506 115.082C409.126 115.082 408.007 116.2 408.007 117.58C408.007 118.96 409.126 120.078 410.506 120.078Z" fill="#CCCCCC"/>
<path d="M107.173 89.3824C109.326 89.3824 111.071 87.6375 111.071 85.4851C111.071 83.3326 109.326 81.5877 107.173 81.5877C105.021 81.5877 103.276 83.3326 103.276 85.4851C103.276 87.6375 105.021 89.3824 107.173 89.3824Z" fill="#CCCCCC"/>
<path d="M401.762 201.271C403.142 201.271 404.26 200.152 404.26 198.772C404.26 197.393 403.142 196.274 401.762 196.274C400.382 196.274 399.264 197.393 399.264 198.772C399.264 200.152 400.382 201.271 401.762 201.271Z" fill="#CCCCCC"/>
<path d="M18.5062 305.523C20.2235 305.523 21.6156 304.13 21.6156 302.413C21.6156 300.696 20.2235 299.304 18.5062 299.304C16.7889 299.304 15.3968 300.696 15.3968 302.413C15.3968 304.13 16.7889 305.523 18.5062 305.523Z" fill="#CCCCCC"/>
<path d="M81.3122 349.059C83.1719 349.059 84.6794 347.551 84.6794 345.691C84.6794 343.832 83.1719 342.324 81.3122 342.324C79.4525 342.324 77.9449 343.832 77.9449 345.691C77.9449 347.551 79.4525 349.059 81.3122 349.059Z" fill="#CCCCCC"/>
<path d="M179.2 6.645H172.555V0H168.99V6.645H162.342V10.213H168.99V16.858H172.555V10.213H179.2V6.645Z" fill="#CCCCCC"/>
<path d="M333.342 366.201H329.168V362.029H326.93V366.201H322.758V368.44H326.93V372.612H329.168V368.44H333.342V366.201Z" fill="#CCCCCC"/>
<path d="M429.646 344.844H426.527V341.725H424.852V344.844H421.733V346.519H424.852V349.638H426.527V346.519H429.646V344.844Z" fill="#CCCCCC"/>
<path opacity="0.1" d="M220.119 120.329C226.531 120.329 231.73 115.13 231.73 108.717C231.73 102.305 226.531 97.1062 220.119 97.1062C213.706 97.1062 208.508 102.305 208.508 108.717C208.508 115.13 213.706 120.329 220.119 120.329Z" fill="black"/>
<path opacity="0.1" d="M130.924 205.301C137.336 205.301 142.535 200.103 142.535 193.69C142.535 187.277 137.336 182.079 130.924 182.079C124.511 182.079 119.312 187.277 119.312 193.69C119.312 200.103 124.511 205.301 130.924 205.301Z" fill="black"/>
<path opacity="0.1" d="M259.174 321.941C265.587 321.941 270.786 316.743 270.786 310.33C270.786 303.917 265.587 298.719 259.174 298.719C252.762 298.719 247.563 303.917 247.563 310.33C247.563 316.743 252.762 321.941 259.174 321.941Z" fill="black"/>
<path opacity="0.1" d="M220.119 223.246C226.531 223.246 231.73 218.047 231.73 211.635C231.73 205.222 226.531 200.024 220.119 200.024C213.706 200.024 208.508 205.222 208.508 211.635C208.508 218.047 213.706 223.246 220.119 223.246Z" fill="black"/>
<path opacity="0.1" d="M136.729 287.107C143.142 287.107 148.34 281.909 148.34 275.496C148.34 269.084 143.142 263.885 136.729 263.885C130.317 263.885 125.118 269.084 125.118 275.496C125.118 281.909 130.317 287.107 136.729 287.107Z" fill="black"/>
<path opacity="0.1" d="M282.397 160.968C288.81 160.968 294.008 155.769 294.008 149.357C294.008 142.944 288.81 137.745 282.397 137.745C275.984 137.745 270.786 142.944 270.786 149.357C270.786 155.769 275.984 160.968 282.397 160.968Z" fill="black"/>
<path opacity="0.1" d="M320.925 239.607C327.338 239.607 332.536 234.409 332.536 227.996C332.536 221.583 327.338 216.385 320.925 216.385C314.512 216.385 309.314 221.583 309.314 227.996C309.314 234.409 314.512 239.607 320.925 239.607Z" fill="black"/>
<path d="M220.119 176.273C228.572 176.273 235.424 169.421 235.424 160.968C235.424 152.515 228.572 145.662 220.119 145.662C211.666 145.662 204.813 152.515 204.813 160.968C204.813 169.421 211.666 176.273 220.119 176.273Z" fill="white"/>
<path d="M220.119 138.801C214.38 138.801 208.876 141.081 204.818 145.139C200.76 149.197 198.48 154.701 198.48 160.44C198.48 172.391 220.119 211.635 220.119 211.635C220.119 211.635 241.758 172.391 241.758 160.44C241.758 154.701 239.478 149.197 235.42 145.139C231.362 141.081 225.858 138.801 220.119 138.801ZM220.119 170.996C218.135 170.996 216.197 170.407 214.548 169.306C212.898 168.204 211.613 166.638 210.854 164.805C210.095 162.973 209.897 160.957 210.284 159.011C210.67 157.066 211.626 155.279 213.028 153.877C214.43 152.475 216.217 151.519 218.162 151.133C220.108 150.746 222.124 150.944 223.956 151.703C225.789 152.462 227.355 153.747 228.457 155.397C229.558 157.046 230.147 158.984 230.147 160.968C230.147 162.285 229.887 163.589 229.383 164.805C228.879 166.022 228.141 167.127 227.21 168.058C226.278 168.99 225.173 169.728 223.956 170.232C222.74 170.736 221.436 170.996 220.119 170.996V170.996Z" fill="#CCCCCC"/>
<path d="M136.729 241.718C145.182 241.718 152.035 234.866 152.035 226.413C152.035 217.96 145.182 211.107 136.729 211.107C128.276 211.107 121.424 217.96 121.424 226.413C121.424 234.866 128.276 241.718 136.729 241.718Z" fill="white"/>
<path d="M136.729 204.246C130.99 204.246 125.486 206.526 121.428 210.584C117.37 214.642 115.09 220.146 115.09 225.885C115.09 237.836 136.729 277.08 136.729 277.08C136.729 277.08 158.368 237.836 158.368 225.885C158.368 223.043 157.809 220.229 156.721 217.604C155.634 214.979 154.04 212.593 152.03 210.584C150.021 208.574 147.635 206.98 145.01 205.893C142.385 204.805 139.571 204.246 136.729 204.246ZM136.729 236.44C134.746 236.44 132.807 235.852 131.158 234.75C129.509 233.649 128.224 232.082 127.465 230.25C126.706 228.418 126.507 226.401 126.894 224.456C127.281 222.511 128.236 220.724 129.638 219.322C131.041 217.919 132.828 216.964 134.773 216.577C136.718 216.19 138.734 216.389 140.567 217.148C142.399 217.907 143.965 219.192 145.067 220.841C146.169 222.49 146.757 224.429 146.757 226.413C146.757 227.729 146.498 229.033 145.994 230.25C145.49 231.467 144.751 232.572 143.82 233.503C142.889 234.435 141.783 235.173 140.567 235.677C139.35 236.181 138.046 236.44 136.729 236.44V236.44Z" fill="#9CBC32"/>
<path d="M320.925 194.218C329.378 194.218 336.231 187.365 336.231 178.912C336.231 170.459 329.378 163.607 320.925 163.607C312.472 163.607 305.619 170.459 305.619 178.912C305.619 187.365 312.472 194.218 320.925 194.218Z" fill="white"/>
<path d="M320.925 156.745C318.083 156.745 315.269 157.305 312.644 158.393C310.019 159.48 307.633 161.074 305.624 163.083C303.614 165.093 302.021 167.478 300.933 170.104C299.846 172.729 299.286 175.543 299.286 178.385C299.286 190.335 320.925 229.579 320.925 229.579C320.925 229.579 342.564 190.335 342.564 178.385C342.564 175.543 342.004 172.729 340.917 170.104C339.829 167.478 338.235 165.093 336.226 163.083C334.217 161.074 331.831 159.48 329.206 158.393C326.581 157.305 323.767 156.745 320.925 156.745ZM320.925 188.94C318.942 188.94 317.003 188.352 315.354 187.25C313.705 186.148 312.419 184.582 311.66 182.75C310.901 180.917 310.703 178.901 311.09 176.956C311.477 175.011 312.432 173.224 313.834 171.822C315.237 170.419 317.023 169.464 318.969 169.077C320.914 168.69 322.93 168.889 324.763 169.648C326.595 170.407 328.161 171.692 329.263 173.341C330.365 174.99 330.953 176.929 330.953 178.912C330.953 180.229 330.694 181.533 330.19 182.75C329.686 183.966 328.947 185.072 328.016 186.003C327.085 186.934 325.979 187.673 324.763 188.177C323.546 188.681 322.242 188.94 320.925 188.94V188.94Z" fill="#8C73CF"/>
<path d="M220.119 73.356C228.572 73.356 235.424 66.5034 235.424 58.0504C235.424 49.5973 228.572 42.7447 220.119 42.7447C211.666 42.7447 204.813 49.5973 204.813 58.0504C204.813 66.5034 211.666 73.356 220.119 73.356Z" fill="white"/>
<path d="M220.119 35.8835C214.38 35.8836 208.876 38.1634 204.818 42.2215C200.76 46.2796 198.48 51.7835 198.48 57.5225C198.48 69.4734 220.119 108.717 220.119 108.717C220.119 108.717 241.758 69.4734 241.758 57.5225C241.758 51.7835 239.478 46.2796 235.42 42.2215C231.362 38.1634 225.858 35.8835 220.119 35.8835V35.8835ZM220.119 68.0782C218.135 68.0782 216.197 67.4901 214.548 66.3882C212.898 65.2863 211.613 63.7202 210.854 61.8878C210.095 60.0555 209.897 58.0392 210.284 56.094C210.67 54.1488 211.626 52.362 213.028 50.9595C214.43 49.5571 216.217 48.6021 218.162 48.2151C220.108 47.8282 222.124 48.0268 223.956 48.7858C225.789 49.5448 227.355 50.8301 228.457 52.4792C229.558 54.1282 230.147 56.067 230.147 58.0503C230.147 59.3672 229.887 60.6712 229.383 61.8878C228.879 63.1045 228.141 64.21 227.21 65.1411C226.278 66.0723 225.173 66.811 223.956 67.3149C222.74 67.8188 221.436 68.0782 220.119 68.0782V68.0782Z" fill="#F36900"/>
<path d="M259.174 276.552C267.628 276.552 274.48 269.699 274.48 261.246C274.48 252.793 267.628 245.941 259.174 245.941C250.721 245.941 243.869 252.793 243.869 261.246C243.869 269.699 250.721 276.552 259.174 276.552Z" fill="white"/>
<path d="M259.174 244.079C253.435 244.079 247.932 246.359 243.873 250.417C239.815 254.475 237.536 259.979 237.536 265.718C237.536 277.669 259.174 316.913 259.174 316.913C259.174 316.913 280.814 277.669 280.814 265.718C280.814 262.877 280.254 260.063 279.166 257.437C278.079 254.812 276.485 252.427 274.476 250.417C272.466 248.408 270.081 246.814 267.455 245.727C264.83 244.639 262.016 244.079 259.174 244.079ZM259.174 276.274C257.191 276.274 255.252 275.686 253.603 274.584C251.954 273.482 250.669 271.916 249.91 270.084C249.151 268.251 248.952 266.235 249.339 264.29C249.726 262.345 250.681 260.558 252.084 259.155C253.486 257.753 255.273 256.798 257.218 256.411C259.163 256.024 261.18 256.223 263.012 256.982C264.844 257.741 266.411 259.026 267.512 260.675C268.614 262.324 269.202 264.263 269.202 266.246C269.202 267.563 268.943 268.867 268.439 270.084C267.935 271.3 267.196 272.406 266.265 273.337C265.334 274.268 264.229 275.007 263.012 275.511C261.795 276.015 260.491 276.274 259.174 276.274Z" fill="#F36900"/>
<path d="M130.924 155.857C139.377 155.857 146.229 149.004 146.229 140.551C146.229 132.098 139.377 125.245 130.924 125.245C122.471 125.245 115.618 132.098 115.618 140.551C115.618 149.004 122.471 155.857 130.924 155.857Z" fill="white"/>
<path d="M130.924 121.384C125.185 121.384 119.681 123.664 115.623 127.722C111.564 131.78 109.285 137.284 109.285 143.023C109.285 154.974 130.924 194.218 130.924 194.218C130.924 194.218 152.563 154.974 152.563 143.023C152.563 137.284 150.283 131.78 146.225 127.722C142.167 123.664 136.663 121.384 130.924 121.384ZM130.924 153.579C128.94 153.579 127.002 152.991 125.352 151.889C123.703 150.787 122.418 149.221 121.659 147.388C120.9 145.556 120.702 143.54 121.089 141.595C121.475 139.649 122.43 137.863 123.833 136.46C125.235 135.058 127.022 134.103 128.967 133.716C130.913 133.329 132.929 133.527 134.761 134.286C136.594 135.045 138.16 136.331 139.262 137.98C140.363 139.629 140.952 141.568 140.952 143.551C140.952 144.868 140.692 146.172 140.188 147.388C139.684 148.605 138.946 149.711 138.014 150.642C137.083 151.573 135.978 152.312 134.761 152.815C133.545 153.319 132.241 153.579 130.924 153.579Z" fill="#8C73CF"/>
<path d="M282.397 118.106C290.85 118.106 297.703 111.254 297.703 102.801C297.703 94.3476 290.85 87.495 282.397 87.495C273.944 87.495 267.091 94.3476 267.091 102.801C267.091 111.254 273.944 118.106 282.397 118.106Z" fill="white"/>
<path d="M282.397 81.6339C276.658 81.6339 271.154 83.9137 267.096 87.9718C263.038 92.0299 260.758 97.5339 260.758 103.273C260.758 115.224 282.397 154.468 282.397 154.468C282.397 154.468 304.036 115.224 304.036 103.273C304.036 97.5339 301.756 92.0299 297.698 87.9718C293.64 83.9137 288.136 81.6339 282.397 81.6339V81.6339ZM282.397 113.829C280.414 113.829 278.475 113.24 276.826 112.139C275.177 111.037 273.891 109.471 273.132 107.638C272.373 105.806 272.175 103.79 272.562 101.844C272.949 99.8991 273.904 98.1123 275.306 96.7099C276.709 95.3075 278.495 94.3524 280.441 93.9655C282.386 93.5786 284.402 93.7771 286.234 94.5361C288.067 95.2951 289.633 96.5804 290.735 98.2295C291.837 99.8786 292.425 101.817 292.425 103.801C292.425 106.46 291.368 109.011 289.488 110.891C287.607 112.772 285.056 113.829 282.397 113.829V113.829V113.829Z" fill="#9CBC32"/>
</svg>
